#!OML:ASF E:\Steps\Project 1\Capture day 1\Session 2\Subject.ASF
:FULLY-SPECIFIED
:DEGREES
274
root -1.10749 17.9702 20.6551 -152.7 -8.23356 177.303
lowerback -25.7047 0.984557 -7.57915
upperback -1.67865 3.14057 -1.35459
thorax 12.1369 0.851669 3.86665
lowerneck -5.16948 1.74013 6.28688
upperneck 9.28319 1.95472 -3.20601
head 4.11248 0.993818 -2.11286
rclavicle 1.87603e-014 1.80894e-014
rhumerus -42.8183 -12.8777 -82.9022
rradius 38.1283
rwrist -17.5423
rhand 1.31204 -64.4548
rfingers 7.12502
rthumb 26.8465 812.569
lclavicle 1.87603e-014 1.80894e-014
lhumerus -26.4574 -4.18437 83.9941
lradius 23.3837
lwrist -0.0336011
lhand -22.0979 -11.4525
lfingers 7.12502
lthumb 4.31426 18.4835
rfemur -23.1349 4.07197 19.5682
rtibia 5.62093
rfoot -18.0724 -6.13511
rtoes -14.7218
lfemur -24.9821 -7.68593 -23.1781
ltibia 6.96307
lfoot -5.27333 -7.77791
ltoes -27.899
275
root -1.10512 17.9695 20.6539 -152.74 -8.27418 177.26
lowerback -25.7279 1.0777 -7.52553
upperback -1.67545 3.25641 -1.41185
thorax 12.1467 0.908682 3.81139
lowerneck -5.20184 1.65544 6.22501
upperneck 9.52364 1.82505 -3.08614
head 4.19411 0.931387 -2.06962
rclavicle 2.40529e-014 -4.27387e-014
rhumerus -42.9532 -13.2117 -82.8038
rradius 38.0986
rwrist -17.6131
rhand 1.33631 -64.4292
rfingers 7.12502
rthumb 26.8697 812.54
lclavicle 2.40529e-014 -4.27387e-014
lhumerus -26.295 -4.27989 84.0592
lradius 23.4126
lwrist -0.144151
lhand -22.0047 -11.4989
lfingers 7.12502
lthumb 4.40423 18.4353
rfemur -23.1189 3.81019 19.591
rtibia 5.68793
rfoot -18.0631 -5.95482
rtoes -14.9086
lfemur -24.9591 -7.71726 -23.2166
ltibia 7.01353
lfoot -5.29753 -7.81831
ltoes -28.235
276
root -1.10341 17.9685 20.6518 -152.776 -8.34686 177.295
lowerback -25.8115 1.15202 -7.35892
upperback -1.65002 3.32228 -1.45109
thorax 12.2269 0.945646 3.69838
lowerneck -5.2325 1.57869 6.21693
upperneck 9.74949 1.7037 -2.99618
head 4.27299 0.873757 -2.04621
rclavicle -9.74045e-015 -3.18055e-014
rhumerus -43.0214 -13.5228 -82.7289
rradius 38.0192
rwrist -17.7087
rhand 1.55259 -64.3627
rfingers 7.12502
rthumb 27.0766 812.441
lclavicle -9.74045e-015 -3.18055e-014
lhumerus -26.2327 -4.55706 84.1149
lradius 23.6057
lwrist -0.0389195
lhand -22.1533 -11.3782
lfingers 7.12502
lthumb 4.26073 18.5589
rfemur -23.0492 3.77756 19.662
rtibia 5.65773
rfoot -18.0646 -5.91598
rtoes -14.6644
lfemur -24.9437 -7.83731 -23.1172
ltibia 7.05708
lfoot -5.30368 -7.79565
ltoes -27.7401
277
root -1.1011 17.9666 20.6489 -152.787 -8.41033 177.329
lowerback -25.903 1.21586 -7.24448
upperback -1.65895 3.3774 -1.43708
thorax 12.2658 0.974408 3.67158
lowerneck -5.17472 1.51165 6.13268
upperneck 9.97455 1.60412 -2.89521
head 4.33359 0.824098 -2.00356
rclavicle -4.00054e-015 3.04141e-014
rhumerus -43.0317 -13.4821 -82.6851
rradius 37.9264
rwrist -18.0829
rhand 1.51047 -64.452
rfingers 7.12502
rthumb 27.0363 812.537
lclavicle -4.00054e-015 3.04141e-014
lhumerus -26.2959 -5.15965 84.358
lradius 23.8868
lwrist 0.446974
lhand -22.4653 -10.8115
lfingers 7.12502
lthumb 3.95947 19.1315
rfemur -23.0061 3.76015 19.7249
rtibia 5.65443
rfoot -18.1183 -5.81578
rtoes -13.5107
lfemur -24.9443 -7.89945 -23.0449
ltibia 7.07002
lfoot -5.31648 -7.79994
ltoes -27.4685
278
root -1.09856 17.966 20.6478 -152.826 -8.45202 177.325
lowerback -25.9326 1.29478 -7.18411
upperback -1.66817 3.46483 -1.43631
thorax 12.2651 1.01776 3.66923
lowerneck -5.12383 1.44732 5.98115
upperneck 10.2027 1.51087 -2.76975
head 4.3956 0.775989 -1.93974
rclavicle -2.0773e-014 2.00773e-014
rhumerus -43.0838 -13.3945 -82.6631
rradius 37.9934
rwrist -18.4445
rhand 1.47431 -64.7775
rfingers 7.12502
rthumb 27.0017 812.868
lclavicle -2.0773e-014 2.00773e-014
lhumerus -26.1819 -5.3175 84.5304
lradius 23.9468
lwrist 0.609724
lhand -22.4791 -10.6268
lfingers 7.12502
lthumb 3.94613 19.3164
rfemur -23.0288 3.39606 19.8232
rtibia 5.80661
rfoot -18.205 -5.47575
rtoes -13.351
lfemur -24.9097 -7.93818 -23.0359
ltibia 7.0989
lfoot -5.36477 -7.78999
ltoes -27.9576
279
root -1.09646 17.9671 20.6487 -152.874 -8.49702 177.314
lowerback -25.9635 1.35594 -7.13945
upperback -1.62821 3.54389 -1.4438
thorax 12.3236 1.05532 3.6651
lowerneck -5.09776 1.40048 5.91775
upperneck 10.7405 1.45941 -2.82395
head 4.11258 0.731719 -1.76214
rclavicle -3.12837e-014 -1.00386e-014
rhumerus -43.0786 -13.427 -82.6519
rradius 38.1189
rwrist -18.6082
rhand 1.50338 -64.8709
rfingers 7.12502
rthumb 27.0295 812.957
lclavicle -3.12837e-014 -1.00386e-014
lhumerus -25.9215 -5.3283 84.638
lradius 23.9776
lwrist 0.698169
lhand -22.4023 -10.5687
lfingers 7.12502
lthumb 4.02032 19.3731
rfemur -23.0273 3.18313 19.8749
rtibia 5.89623
rfoot -18.2366 -5.35998
rtoes -13.7851
lfemur -24.8795 -8.06411 -23.0045
ltibia 7.1404
lfoot -5.39274 -7.65076
ltoes -28.3771
280
root -1.09535 17.9683 20.6478 -152.941 -8.60111 177.252
lowerback -25.9674 1.41224 -7.15066
upperback -1.62631 3.62457 -1.4633
thorax 12.3199 1.09259 3.67733
lowerneck -5.07692 1.34481 5.89443
upperneck 10.9721 1.36605 -2.72291
head 4.17504 0.687447 -1.73317
rclavicle -3.65267e-015 2.23633e-014
rhumerus -43.1804 -13.5805 -82.5706
rradius 38.1547
rwrist -18.7002
rhand 1.47061 -64.5047
rfingers 7.12502
rthumb 26.9982 812.595
lclavicle -3.65267e-015 2.23633e-014
lhumerus -25.8448 -5.52109 84.786
lradius 24.0941
lwrist 0.770382
lhand -22.4042 -10.4391
lfingers 7.12502
lthumb 4.0185 19.5028
rfemur -22.8988 3.21381 19.8084
rtibia 5.84128
rfoot -18.2681 -5.49797
rtoes -13.4404
lfemur -24.8121 -8.2726 -23.0163
ltibia 7.16134
lfoot -5.38023 -7.54705
ltoes -28.2102
281
root -1.09342 17.9697 20.6449 -153.035 -8.73822 177.129
lowerback -25.9197 1.44297 -7.22298
upperback -1.6276 3.68481 -1.48042
thorax 12.2826 1.11902 3.71763
lowerneck -5.03877 1.28094 5.76611
upperneck 11.2209 1.26654 -2.58621
head 4.23868 0.637447 -1.67662
rclavicle 2.29348e-014 -5.96354e-016
rhumerus -43.3054 -13.7066 -82.4646
rradius 38.1793
rwrist -18.8019
rhand 1.52704 -64.1102
rfingers 7.12502
rthumb 27.0522 812.192
lclavicle 2.29348e-014 -5.96354e-016
lhumerus -25.8501 -5.45296 84.8829
lradius 24.2342
lwrist 0.602875
lhand -22.1928 -10.8859
lfingers 7.12502
lthumb 4.22261 19.052
rfemur -22.7416 3.19714 19.6931
rtibia 5.85721
rfoot -18.3535 -5.62299
rtoes -12.9579
lfemur -24.7051 -8.38471 -23.1344
ltibia 7.20557
lfoot -5.35738 -7.63879
ltoes -27.7218
282
root -1.08856 17.9716 20.6433 -153.121 -8.89327 176.997
lowerback -25.8461 1.46274 -7.33964
upperback -1.63444 3.74073 -1.50133
thorax 12.2223 1.14227 3.77586
lowerneck -4.99218 1.20922 5.6551
upperneck 11.4664 1.15527 -2.45921
head 4.29995 0.581653 -1.62658
rclavicle 5.04416e-015 1.18277e-014
rhumerus -43.4316 -13.8092 -82.3691
rradius 38.2112
rwrist -18.8776
rhand 1.67701 -64.272
rfingers 7.12502
rthumb 27.1957 812.332
lclavicle 5.04416e-015 1.18277e-014
lhumerus -25.8329 -5.50448 84.9841
lradius 24.3602
lwrist 0.603902
lhand -21.9143 -11.4105
lfingers 7.12502
lthumb 4.49153 18.5219
rfemur -22.5706 3.25232 19.5675
rtibia 5.79675
rfoot -18.3498 -5.88173
rtoes -13.4124
lfemur -24.6252 -8.31627 -23.2962
ltibia 7.29011
lfoot -5.34846 -7.89416
ltoes -27.8702
283
root -1.08401 17.9734 20.6436 -153.219 -9.07659 176.939
lowerback -25.7784 1.46502 -7.36813
upperback -1.62758 3.75209 -1.52697
thorax 12.1926 1.14931 3.76406
lowerneck -4.94282 1.1627 5.5939
upperneck 11.6876 1.0771 -2.36368
head 4.35542 0.542647 -1.59256
rclavicle 3.40419e-015 -2.05742e-014
rhumerus -43.4988 -13.9051 -82.3524
rradius 38.1933
rwrist -18.8344
rhand 1.93177 -64.6123
rfingers 7.12502
rthumb 27.4393 812.634
lclavicle 3.40419e-015 -2.05742e-014
lhumerus -25.7476 -5.57127 85.0252
lradius 24.4536
lwrist 0.679089
lhand -21.9316 -11.3333
lfingers 7.12502
lthumb 4.47479 18.5994
rfemur -22.3753 3.22917 19.553
rtibia 5.6525
rfoot -18.2737 -6.02099
rtoes -14.0347
lfemur -24.5253 -8.17988 -23.3876
ltibia 7.3217
lfoot -5.35283 -8.2121
ltoes -28.5731
